<svg xmlns="http://www.w3.org/2000/svg" viewBox="0 0 128 128">
  <defs>
    <linearGradient id="g" x1="0%" y1="0%" x2="100%" y2="100%">
      <stop offset="0%" stop-color="#ec4899"/>
      <stop offset="50%" stop-color="#8b5cf6"/>
      <stop offset="100%" stop-color="#3b82f6"/>
    </linearGradient>
  </defs>
  <rect width="128" height="128" rx="28" fill="url(#g)"/>
  <!-- Party popper cone -->
  <path d="M38 90 L58 42 L74 58 Z" fill="#fbbf24" opacity="0.95"/>
  <path d="M38 90 L58 42 L48 38 Z" fill="#f59e0b" opacity="0.9"/>
  <!-- Confetti pieces -->
  <rect x="68" y="24" width="8" height="12" rx="2" fill="#f472b6" transform="rotate(-20 72 30)"/>
  <rect x="82" y="34" width="7" height="10" rx="2" fill="#60a5fa" transform="rotate(15 85 39)"/>
  <rect x="56" y="20" width="6" height="10" rx="2" fill="#34d399" transform="rotate(-35 59 25)"/>
  <rect x="90" y="50" width="8" height="11" rx="2" fill="#facc15" transform="rotate(25 94 55)"/>
  <rect x="76" y="18" width="6" height="9" rx="2" fill="#fb923c" transform="rotate(10 79 22)"/>
  <circle cx="66" cy="34" r="4" fill="#a78bfa"/>
  <circle cx="88" cy="26" r="3.5" fill="#f472b6"/>
  <circle cx="96" cy="42" r="3" fill="#34d399"/>
  <circle cx="78" cy="52" r="3.5" fill="#fb923c"/>
  <!-- Streamers -->
  <path d="M62 38 Q72 28 80 32 Q88 36 92 28" fill="none" stroke="#f472b6" stroke-width="2.5" stroke-linecap="round"/>
  <path d="M66 48 Q76 38 84 44 Q90 48 96 38" fill="none" stroke="#60a5fa" stroke-width="2.5" stroke-linecap="round"/>
  <path d="M58 34 Q64 22 74 20" fill="none" stroke="#facc15" stroke-width="2.5" stroke-linecap="round"/>
</svg>
